<mxfile host="app.diagrams.net" modified="2023-06-25T10:11:08.903Z" agent="Mozilla/5.0 (Windows NT 10.0; Win64; x64) AppleWebKit/537.36 (KHTML, like Gecko) Chrome/114.0.0.0 Safari/537.36" version="21.5.0" etag="H7h3Li0mDY5690A7KAqX" type="github">
  <diagram name="第 1 页" id="isXLuRnGI-NDV8r-viSz">
    <mxGraphModel>
      <root>
        <mxCell id="0" />
        <mxCell id="1" parent="0" />
      </root>
    </mxGraphModel>
  </diagram>
</mxfile>
